            <svg
              viewBox="0 0 80 80"
              fill="none"
              xmlns="http://www.w3.org/2000/svg"
              
            >
              <rect
                x="0.457031"
                width="78.5454"
                height="78.5454"
                rx="4"
                fill="#EAD946"
              />
              <rect
                width="31.4182"
                height="31.4182"
                transform="translate(24.0195 24.8726)"
                fill="#EAD946"
              />
              <path
                d="M36.4564 28.7998C38.7131 28.7998 40.8774 29.6963 42.4732 31.2921C44.069 32.8878 44.9654 35.0521 44.9654 37.3089C44.9654 39.4165 44.1931 41.354 42.9233 42.8463L43.2767 43.1998H44.3109L50.8563 49.7453L48.8927 51.7089L42.3473 45.1634V44.1293L41.9938 43.7758C40.5014 45.0456 38.564 45.818 36.4564 45.818C34.1996 45.818 32.0353 44.9215 30.4395 43.3257C28.8438 41.73 27.9473 39.5656 27.9473 37.3089C27.9473 35.0521 28.8438 32.8878 30.4395 31.2921C32.0353 29.6963 34.1996 28.7998 36.4564 28.7998M36.4564 31.418C33.1836 31.418 30.5654 34.0362 30.5654 37.3089C30.5654 40.5816 33.1836 43.1998 36.4564 43.1998C39.7291 43.1998 42.3473 40.5816 42.3473 37.3089C42.3473 34.0362 39.7291 31.418 36.4564 31.418Z"
                fill="#363636"
              />
            </svg>